<svg xmlns="http://www.w3.org/2000/svg" viewBox="0 0 64 64"><defs><style>.cls-1{fill:none;}.cls-2{fill:#009ede;}.cls-3{fill:#0083ca;}.cls-4{fill:#fff;}</style></defs><g id="_52.cloud" data-name="52.cloud"><path d="M22,56.66a1,1,0,0,1-1-1v-4a1,1,0,0,1,2,0v4A1,1,0,0,1,22,56.66Z"/><path d="M22,43.66a1,1,0,0,1-1-1c0-.78-.1-2,1-2a1,1,0,0,1,1,1C23,42.44,23.1,43.66,22,43.66Z"/><path d="M22,48.66a1,1,0,0,1-1-1c0-.78-.1-2,1-2a1,1,0,0,1,1,1C23,47.44,23.1,48.66,22,48.66Z"/><path d="M32,56.66a1,1,0,0,1-1-1v-4a1,1,0,0,1,2,0v4A1,1,0,0,1,32,56.66Z"/><path d="M32,43.66a1,1,0,0,1-1-1c0-.78-.1-2,1-2a1,1,0,0,1,1,1C33,42.44,33.1,43.66,32,43.66Z"/><path d="M32,48.66a1,1,0,0,1-1-1c0-.78-.1-2,1-2a1,1,0,0,1,1,1C33,47.44,33.1,48.66,32,48.66Z"/><path d="M42,56.66a1,1,0,0,1-1-1v-4a1,1,0,0,1,2,0v4A1,1,0,0,1,42,56.66Z"/><path d="M42,43.66a1,1,0,0,1-1-1c0-.78-.1-2,1-2a1,1,0,0,1,1,1C43,42.44,43.1,43.66,42,43.66Z"/><path d="M42,48.66a1,1,0,0,1-1-1c0-.78-.1-2,1-2a1,1,0,0,1,1,1C43,47.44,43.1,48.66,42,48.66Z"/><path d="M27,56.66a1,1,0,0,1-1-1v-4a1,1,0,0,1,2,0v4A1,1,0,0,1,27,56.66Z"/><path d="M27,43.66a1,1,0,0,1-1-1c0-.78-.1-2,1-2a1,1,0,0,1,1,1C28,42.44,28.1,43.66,27,43.66Z"/><path d="M27,48.66a1,1,0,0,1-1-1c0-.78-.1-2,1-2a1,1,0,0,1,1,1C28,47.44,28.1,48.66,27,48.66Z"/><path d="M37,56.66a1,1,0,0,1-1-1v-4a1,1,0,0,1,2,0v4A1,1,0,0,1,37,56.66Z"/><path d="M37,43.66a1,1,0,0,1-1-1c0-.78-.1-2,1-2a1,1,0,0,1,1,1C38,42.44,38.1,43.66,37,43.66Z"/><path d="M37,48.66a1,1,0,0,1-1-1c0-.78-.1-2,1-2a1,1,0,0,1,1,1C38,47.44,38.1,48.66,37,48.66Z"/><path class="cls-1" d="M20.19,9.49a16.07,16.07,0,0,0-2.54,3.68h.11A15.94,15.94,0,0,1,20.19,9.49Z"/><path class="cls-1" d="M48.27,36.42h0c-1.77-.16-34.27.43-35-.44C6,34.27,2,25,6.24,18.71c-5.53,7.47.39,19,9.79,18.73H48A11.93,11.93,0,0,0,59.4,28.88,11.91,11.91,0,0,1,48.27,36.42Z"/><path class="cls-1" d="M20.61,9,20.68,9A.23.23,0,0,1,20.61,9Z"/><path class="cls-1" d="M40.83,8.38a1,1,0,0,0,.26.65,17.36,17.36,0,0,1,2.72,2.9,18.6,18.6,0,0,1,1.68,2.94.92.92,0,0,0,.68.39,10.48,10.48,0,0,1,8.2,1.92c.59.47,1.32,0,1.91-.21a11.81,11.81,0,0,0-9.67-3.29,16.14,16.14,0,0,0-5.85-6.77A7.31,7.31,0,0,0,40.83,8.38Z"/><path class="cls-2" d="M15.3,36.36l-.4,0Z"/><path class="cls-2" d="M44.54,13a2.53,2.53,0,0,1,.13.22A2.53,2.53,0,0,0,44.54,13Z"/><path class="cls-2" d="M14.23,36.21l-.5-.1Z"/><path class="cls-2" d="M13.23,36l-.58-.17Z"/><path class="cls-2" d="M12.34,35.7A12.16,12.16,0,0,1,9.24,34C7,26.28,14,18.42,22.1,19.51c3.43-7.72,13.48-11.29,21.18-7.72l.24-.26.29.4A22.32,22.32,0,0,0,41,8.87a5.4,5.4,0,0,1-.2-2c-7.55-5.16-19.29-2.19-23,6.27h-.11c-.09.17-.18.33-.26.5C3.51,12.25-.46,31,12.34,35.7Z"/><path class="cls-3" d="M55,17.4c-2.18-1.08-4.1-2.45-6.75-2.29-.86-.11-1.74.4-2.52,0-.87-1.08-1.26-2.53-2.22-3.59l-.24.26c-7.7-3.57-17.75,0-21.18,7.72C14,18.42,7,26.28,9.24,34a12.24,12.24,0,0,0,7.18,2.38H48.26a11.24,11.24,0,0,0,8-19.45A4,4,0,0,1,55,17.4Z"/><path class="cls-4" d="M35.33,8.09c-1.69-.8-9.95-.63-9.21,2.16a1,1,0,0,0,.9.55A11.35,11.35,0,0,1,34.79,10,1,1,0,0,0,35.33,8.09Z"/><path class="cls-4" d="M23.4,11.21c-.92.63-1.26,2.14.17,2.28.56,0,.88-.52,1.24-.87C25.74,11.72,24.3,10.28,23.4,11.21Z"/><path class="cls-4" d="M19.45,17.61A8.7,8.7,0,0,0,9.3,19.91a1,1,0,0,0,.12,1.41,1,1,0,0,0,1.41-.12,6.66,6.66,0,0,1,5.07-2.35c1.3-.31,3.27,1.5,4,.08A1,1,0,0,0,19.45,17.61Z"/><path class="cls-4" d="M8.64,22.9c-1.43-.22-1.34,1.64-1.39,2.61a1,1,0,0,0,1,1c1.31,0,.9-1.56,1.15-2.42A1,1,0,0,0,8.64,22.9Z"/><path d="M46.61,13.68c-5.41-12.34-23.8-12.34-29.22,0C.77,12.43-.64,36.73,16,37.44H48C64.53,36.83,63.3,12.41,46.61,13.68ZM48,35.44H16A10,10,0,0,1,6.1,25.51c0-10.72,15-13.71,19.09-3.82A1,1,0,1,0,27,20.92a12,12,0,0,0-7.63-6.83c4.78-10.21,20.4-10.21,25.19,0A12,12,0,0,0,37,20.92a1,1,0,0,0,1.85.77c4.1-9.89,19.11-6.9,19.09,3.82A10,10,0,0,1,48,35.44Z"/></g></svg>