<svg xmlns="http://www.w3.org/2000/svg" viewBox="0 0 64 64"><defs><style>.cls-1{fill:none;}.cls-2{fill:#009ede;}.cls-3{fill:#0083ca;}.cls-4{fill:#fff;}</style></defs><g id="_51.cloud" data-name="51.cloud"><path class="cls-1" d="M21.17,13.33A16.09,16.09,0,0,0,18.75,17h.11A15.65,15.65,0,0,1,21.17,13.33Z"/><path class="cls-1" d="M21.57,12.88l.06-.06Z"/><path class="cls-2" d="M16.52,40l-.38-.05Z"/><path class="cls-2" d="M44.32,16.85l.12.22Z"/><path class="cls-2" d="M15.5,39.84,15,39.73Z"/><path class="cls-2" d="M14.55,39.61,14,39.44Z"/><path class="cls-2" d="M13.7,39.33a11.6,11.6,0,0,1-2.94-1.64C8.62,30.11,15.21,22.18,23,23.27a15.21,15.21,0,0,1,20.14-7.66l.23-.26.27.4a21.73,21.73,0,0,0-2.7-3,5.54,5.54,0,0,1-.2-1.94c-7.24-5.19-18.46-2-21.86,6.22h-.11c-.08.17-.17.33-.24.5C5.1,16.13,1.69,34.8,13.7,39.33Z"/><path class="cls-3" d="M54.27,21.18c-2.09-1.08-3.87-2.43-6.41-2.28-.82-.11-1.66.4-2.4,0-.83-1.07-1.2-2.5-2.11-3.56l-.23.26A15.21,15.21,0,0,0,23,23.27c-7.77-1.09-14.36,6.84-12.22,14.42A11.23,11.23,0,0,0,17.59,40H47.86c10.24,0,14.62-12.47,7.62-19.29A4.07,4.07,0,0,1,54.27,21.18Z"/><path class="cls-4" d="M27.21,12.64a1,1,0,0,0,.9,1.79,9.77,9.77,0,0,1,7.06-.66,1,1,0,0,0,1.23-.69C36.65,10.26,28.7,11.56,27.21,12.64Z"/><path class="cls-4" d="M24.05,15c-1.43.92-.35,3,1.05,1.82C26.46,15.87,25.44,13.89,24.05,15Z"/><path d="M17.05,40.28a1,1,0,0,0,0-2c-13.77-.61-11.93-20.87,1.72-19A9.57,9.57,0,0,1,25.87,25a1,1,0,1,0,1.85-.77,11.63,11.63,0,0,0-7.36-6.62C25,7.85,40,7.86,44.61,17.65a11.59,11.59,0,0,0-7.36,6.62,1,1,0,0,0,.54,1.31,1,1,0,0,0,1.3-.54,9.56,9.56,0,1,1,8.83,13.24,1,1,0,0,0,0,2c16.14-.68,14.81-24.21-1.3-23-5.25-11.92-23-11.92-28.28,0C2.23,16.07.91,39.6,17.05,40.28Z"/><path class="cls-4" d="M12,24.58a6.41,6.41,0,0,1,6-2.16c.94.08,2.19,1.16,2.79-.05a1,1,0,0,0-.51-1.32,8.41,8.41,0,0,0-9.84,2.23A1,1,0,0,0,12,24.58Z"/><path class="cls-4" d="M9.9,26.16c-1.41-.22-1.33,1.6-1.38,2.56a1,1,0,0,0,1,1c1.29,0,.91-1.52,1.15-2.37A1,1,0,0,0,9.9,26.16Z"/><path d="M59.92,45c-9.62.8-22.49,1.3-36.78-2a40.76,40.76,0,0,0-19.46,2A1,1,0,0,0,4.32,47a38.75,38.75,0,0,1,18.46-2c13.27,3,25.14,3,37.3,2A1,1,0,0,0,59.92,45Z"/><path d="M49.82,49.86c-11.6.88-27.43-3.69-37.7-2.41a1,1,0,0,0,.12,2c7-.42,14.6.18,24,1.89,2.23.14,15.09,1.87,14.65-.54A1,1,0,0,0,49.82,49.86Z"/><path d="M43.16,53.79C39,54.24,18,49.21,18,52.2a1,1,0,0,0,1,1,113.28,113.28,0,0,1,17.31,2c1.71,0,8,1.55,7.89-.39A1,1,0,0,0,43.16,53.79Z"/></g></svg>