<svg xmlns="http://www.w3.org/2000/svg" viewBox="0 0 64 64"><defs><style>.cls-1{fill:#ffa132;}.cls-2{fill:#009ede;}.cls-3{fill:#0083ca;}.cls-4{fill:#fff;}</style></defs><g id="_19.moon" data-name="19.moon"><path class="cls-1" d="M59.66,18.22c-.61-.7-1.56-.14-2.37-.24-5.89.19-10.35-6.36-8.1-11.77a1,1,0,0,0-1.1-1.35,10.64,10.64,0,0,0-8.92,10.52c0,.65-.06,1.48.44,2A14.62,14.62,0,0,1,43.77,23a.93.93,0,0,0,.89.39,9.66,9.66,0,0,1,7.74,1.91,1,1,0,0,0,.92.16C55.74,24.83,60.49,20.9,59.66,18.22Z"/><path class="cls-2" d="M53.32,25.47a1,1,0,0,1-.92-.16,9.52,9.52,0,0,0-5.94-2.07c-.84-.1-1.7.4-2.45,0-1.26-2.17-2.46-4.45-4.51-6a4.8,4.8,0,0,1-.3-2.61C31.63,9.71,20.46,13,16.88,21.33c-16.1-1.17-17.45,22.35-1.31,23,0,0,30.88,0,30.89,0,10,.22,15.36-12.58,8.35-19.56A11.05,11.05,0,0,1,53.32,25.47Z"/><path class="cls-3" d="M53.32,25.47a1,1,0,0,1-.92-.16,9.52,9.52,0,0,0-5.94-2.07c-.84-.1-1.7.4-2.45,0-.84-1.07-1.21-2.52-2.15-3.56l-.23.25a15.68,15.68,0,0,0-20.55,7.66C13.2,26.53,6.43,34.39,8.61,42a11.49,11.49,0,0,0,7,2.35H46.46c10,.22,15.36-12.58,8.35-19.56A11.05,11.05,0,0,1,53.32,25.47Z"/><path class="cls-4" d="M34.25,15.93c-1.64-.77-9.71-.59-8.94,2.14a1,1,0,0,0,.89.55,10.93,10.93,0,0,1,7.5-.76A1,1,0,0,0,34.25,15.93Z"/><path class="cls-4" d="M22.67,19c-.91.63-1.2,2.13.2,2.26.56,0,.87-.51,1.23-.86C25,19.45,23.57,18,22.67,19Z"/><path class="cls-4" d="M19.4,26.46c.52-1.41-1.47-1.68-2.43-1.91a8.32,8.32,0,0,0-7.92,2.82,1,1,0,0,0,1.53,1.3,6.36,6.36,0,0,1,6-2.15C17.54,26.59,18.81,27.67,19.4,26.46Z"/><path class="cls-4" d="M8.44,30.25C7,30,7.1,31.85,7.06,32.81a1,1,0,0,0,1,1c1.28,0,.9-1.52,1.14-2.37A1,1,0,0,0,8.44,30.25Z"/><path d="M20.07,40.07a1,1,0,0,0-1,1V58.16a1,1,0,0,0,2,0V41.07A1,1,0,0,0,20.07,40.07Z"/><path d="M25.41,35.8a1,1,0,0,0-1,1V53.89a1,1,0,0,0,2,0V36.8A1,1,0,0,0,25.41,35.8Z"/><path d="M30.74,40.07a1,1,0,0,0-1,1V58.16a1,1,0,0,0,2,0V41.07A1,1,0,0,0,30.74,40.07Z"/><path d="M36.08,35.8a1,1,0,0,0-1,1V53.89a1,1,0,0,0,2,0V36.8A1,1,0,0,0,36.08,35.8Z"/><path d="M41.42,40.07a1,1,0,0,0-1,1V58.16a1,1,0,0,0,2,0V41.07A1,1,0,0,0,41.42,40.07Z"/><path d="M59.81,19.21a1,1,0,0,0-1.09-1.34c-6.38,1.27-12-5.69-9.53-11.66a1,1,0,0,0-1.1-1.35,10.63,10.63,0,0,0-8.89,9.75C31.63,9.71,20.45,13,16.88,21.33c-16.11-1.17-17.44,22.36-1.3,23a1,1,0,0,0,0-2,9.56,9.56,0,1,1,8.83-13.24,1,1,0,1,0,1.84-.77,11.59,11.59,0,0,0-7.36-6.62c4.63-9.8,19.62-9.79,24.26,0a11.65,11.65,0,0,0-7.37,6.62,1,1,0,0,0,1.85.77,9.57,9.57,0,0,1,7.11-5.72c13.65-1.9,15.48,18.36,1.72,19a1,1,0,0,0,0,2c10,.22,15.37-12.58,8.35-19.56A10.57,10.57,0,0,0,59.81,19.21Zm-6.66,4.18a11.34,11.34,0,0,0-8-2.05,15.77,15.77,0,0,0-4-5.27,8.63,8.63,0,0,1,5.62-8.81A10.74,10.74,0,0,0,57.21,20,8.63,8.63,0,0,1,53.15,23.39Z"/></g></svg>