<svg xmlns="http://www.w3.org/2000/svg" viewBox="0 0 64 64"><defs><style>.cls-1{fill:#ffa132;}.cls-2{fill:#009ede;}.cls-3{fill:#0083ca;}.cls-4{fill:#fff;}</style></defs><g id="_29.moon" data-name="29.moon"><path class="cls-1" d="M59.66,21.32c-.6-.71-1.56-.14-2.36-.24-5.9.19-10.36-6.36-8.11-11.78A1,1,0,0,0,48.09,8a10.64,10.64,0,0,0-8.93,10.52c.05.64-.06,1.48.45,2a14.53,14.53,0,0,1,4.15,5.65.94.94,0,0,0,.9.39,9.66,9.66,0,0,1,7.74,1.91,1,1,0,0,0,.92.15C55.75,27.92,60.5,24,59.66,21.32Z"/><path class="cls-2" d="M53.32,28.56a1,1,0,0,1-.92-.15,9.49,9.49,0,0,0-5.94-2.07c-.84-.1-1.7.4-2.45,0-1.26-2.17-2.47-4.44-4.51-6a4.62,4.62,0,0,1-.3-2.61c-7.58-4.9-18.76-1.61-22.34,6.72C.75,23.26-.6,46.78,15.55,47.47H46.46c10,.21,15.37-12.59,8.35-19.56A9.88,9.88,0,0,1,53.32,28.56Z"/><path class="cls-3" d="M53.32,28.56a1,1,0,0,1-.92-.15,9.49,9.49,0,0,0-5.94-2.07c-.84-.1-1.7.4-2.45,0-.85-1.07-1.21-2.51-2.16-3.55l-.23.25c-7.52-3.54-17.22,0-20.55,7.65C13.18,29.62,6.4,37.48,8.59,45.11a11.5,11.5,0,0,0,7,2.36H46.46c10,.21,15.37-12.59,8.35-19.56A9.88,9.88,0,0,1,53.32,28.56Z"/><path class="cls-4" d="M33.71,21A1,1,0,0,0,35,20.27c.74-2.86-10.9-1.79-9.64.9a1,1,0,0,0,1.34.44A9.87,9.87,0,0,1,33.71,21Z"/><path class="cls-4" d="M22.69,22.05c-1.85,1.31,0,3.39,1.34,1.49C25.08,22.67,23.65,21.08,22.69,22.05Z"/><path class="cls-4" d="M18.9,28.24a8.38,8.38,0,0,0-9.84,2.23,1,1,0,1,0,1.52,1.29,6.42,6.42,0,0,1,4.88-2.26c1.28-.31,3.15,1.47,3.95.06A1,1,0,0,0,18.9,28.24Z"/><path class="cls-4" d="M8.44,33.35C7,33.13,7.11,34.94,7.06,35.9a1,1,0,0,0,1,1c1.29,0,.91-1.51,1.15-2.36A1,1,0,0,0,8.44,33.35Z"/><path d="M59.82,22.31A1,1,0,0,0,58.72,21c-6.37,1.28-12-5.68-9.53-11.65A1,1,0,0,0,48.1,8a10.64,10.64,0,0,0-8.9,9.75c-7.56-4.9-18.74-1.61-22.32,6.72C.77,23.26-.56,46.79,15.59,47.47a1,1,0,0,0,0-2,9.56,9.56,0,1,1,8.82-13.25,1,1,0,0,0,1.31.54,1,1,0,0,0,.54-1.3,11.63,11.63,0,0,0-7.36-6.62c4.63-9.8,19.62-9.8,24.25,0a11.63,11.63,0,0,0-7.36,6.62,1,1,0,0,0,1.85.76,9.59,9.59,0,0,1,7.1-5.72c13.66-1.9,15.49,18.36,1.73,19a1,1,0,0,0,0,2c10,.21,15.36-12.59,8.35-19.56A10.64,10.64,0,0,0,59.82,22.31Zm-6.66,4.18a11.35,11.35,0,0,0-8-2,15.42,15.42,0,0,0-4-5.27,8.64,8.64,0,0,1,5.61-8.82c-1.38,6.33,3.9,12.85,10.39,12.73A8.61,8.61,0,0,1,53.16,26.49Z"/><path d="M31.45,43.1H21a1,1,0,0,0,0,2h10.5a3.5,3.5,0,1,0-2.1-6.3c-1.05.76.18,2.39,1.21,1.6C32.79,39,34.11,42.9,31.45,43.1Z"/><path d="M36.45,49.1H21a1,1,0,0,0,0,2h15.5a1.5,1.5,0,1,1-.89,2.7,1,1,0,0,0-1.21,1.6C39.61,58.72,42.66,49.6,36.45,49.1Z"/><path d="M39.45,41.1c-1.07,0-3.14.74-2.3,2.1a1,1,0,0,0,1.41.2c2.23-1.44,3.55,2.5.89,2.7H21a1,1,0,1,0,0,2h18.5C44.05,48,44.06,41.18,39.45,41.1Z"/></g></svg>