<svg xmlns="http://www.w3.org/2000/svg" viewBox="0 0 64 64"><defs><style>.cls-1{fill:#ffa132;}.cls-2{fill:#009ede;}.cls-3{fill:#0083ca;}.cls-4{fill:#fff;}</style></defs><g id="_30.moon" data-name="30.moon"><path class="cls-1" d="M59.66,19.57c-.61-.71-1.56-.14-2.37-.24C51.4,19.52,46.93,13,49.18,7.55a1,1,0,0,0-1.09-1.34,10.64,10.64,0,0,0-8.93,10.52c.05.64-.06,1.48.45,2a14.74,14.74,0,0,1,4.15,5.65,1,1,0,0,0,.89.39,9.65,9.65,0,0,1,7.74,1.91,1,1,0,0,0,.93.15C55.74,26.17,60.49,22.25,59.66,19.57Z"/><path class="cls-2" d="M53.32,26.81a1,1,0,0,1-.93-.15,9.49,9.49,0,0,0-5.94-2.07c-.84-.1-1.69.4-2.45,0-1.25-2.17-2.46-4.44-4.5-6A4.71,4.71,0,0,1,39.19,16c-7.57-4.9-18.75-1.61-22.33,6.72C.75,21.51-.59,45,15.55,45.72h30.9c10,.21,15.37-12.59,8.36-19.56A9.88,9.88,0,0,1,53.32,26.81Z"/><path class="cls-3" d="M53.32,26.81a1,1,0,0,1-.93-.15,9.49,9.49,0,0,0-5.94-2.07c-.84-.1-1.69.4-2.45,0-.84-1.07-1.21-2.51-2.15-3.55l-.23.25c-7.52-3.54-17.22,0-20.55,7.65C13.18,27.87,6.4,35.73,8.59,43.36a11.56,11.56,0,0,0,7,2.36h30.9c10,.21,15.37-12.59,8.36-19.56A9.88,9.88,0,0,1,53.32,26.81Z"/><path d="M26,34.85a1,1,0,0,0-1,1v16a1,1,0,0,0,2,0v-16A1,1,0,0,0,26,34.85Z"/><path d="M36,34.85a1,1,0,0,0-1,1v16a1,1,0,1,0,2,0v-16A1,1,0,0,0,36,34.85Z"/><path d="M20.24,41.14c-.92.91.52,2.35,1.42,1.41S21.15,40.24,20.24,41.14Z"/><path d="M20.24,44.14a1,1,0,0,0,1.42,1.42A1,1,0,0,0,20.24,44.14Z"/><path d="M20.24,47.14a1,1,0,0,0,1.42,1.42A1,1,0,0,0,20.24,47.14Z"/><path d="M20.24,50.14c-.92.9.52,2.35,1.42,1.41S21.14,49.24,20.24,50.14Z"/><path d="M21.66,53.14c-.91-.9-2.34.5-1.42,1.41S22.58,54.05,21.66,53.14Z"/><path d="M21.66,56.14a1,1,0,0,0-1.42,1.42A1,1,0,0,0,21.66,56.14Z"/><path d="M31.66,41.14A.61.61,0,0,0,31.5,41a1,1,0,0,0-1.26,1.53C31.14,43.49,32.58,42.05,31.66,41.14Z"/><path d="M31.5,44a1,1,0,0,0-1.26,1.53C31.27,46.57,32.69,44.81,31.5,44Z"/><path d="M31.5,47a1,1,0,0,0-1.26,1.53C31.27,49.57,32.69,47.81,31.5,47Z"/><path d="M31.5,50a1,1,0,0,0-1.26,1.53C31.27,52.57,32.69,50.81,31.5,50Z"/><path d="M31.5,53a1,1,0,0,0-1.26,1.53C31.27,55.57,32.69,53.81,31.5,53Z"/><path d="M31.5,56a1,1,0,0,0-1.26,1.54C31.28,58.55,32.69,56.81,31.5,56Z"/><path d="M40.57,40.92a1,1,0,0,0,.76,1.85A1,1,0,0,0,40.57,40.92Z"/><path d="M41.66,44.14c-.91-.93-2.34.51-1.42,1.41S42.58,45.05,41.66,44.14Z"/><path d="M41.51,47c-1.19-.81-2.26,1.21-.94,1.75A1,1,0,0,0,41.51,47Z"/><path d="M40.57,49.92a1,1,0,0,0,.76,1.85A1,1,0,0,0,40.57,49.92Z"/><path d="M41.66,53.14c-.91-.93-2.34.51-1.42,1.41S42.58,54.05,41.66,53.14Z"/><path d="M41.51,56c-1.19-.81-2.26,1.21-.94,1.75A1,1,0,0,0,41.51,56Z"/><path class="cls-4" d="M34.25,17.28c-1.63-.78-9.71-.6-8.94,2.14a1,1,0,0,0,.89.55,10.94,10.94,0,0,1,7.5-.77A1,1,0,0,0,34.25,17.28Z"/><path class="cls-4" d="M22.68,20.3c-1.84,1.31,0,3.39,1.34,1.49C25.07,20.92,23.64,19.33,22.68,20.3Z"/><path class="cls-4" d="M18.9,26.49a8.4,8.4,0,0,0-9.85,2.23A1,1,0,1,0,10.58,30a6.4,6.4,0,0,1,4.88-2.26c1.27-.31,3.15,1.47,3.94.06A1,1,0,0,0,18.9,26.49Z"/><path class="cls-4" d="M8.44,31.6C7,31.38,7.1,33.19,7.06,34.15a1,1,0,0,0,1,1c1.28,0,.9-1.52,1.14-2.36A1,1,0,0,0,8.44,31.6Z"/><path d="M59.81,20.56a1,1,0,0,0-1.09-1.35c-6.37,1.28-12-5.68-9.53-11.66a1,1,0,0,0-1.1-1.34A10.64,10.64,0,0,0,39.2,16c-7.57-4.9-18.74-1.61-22.32,6.72C.77,21.51-.56,45,15.58,45.72a1,1,0,0,0,0-2,9.56,9.56,0,1,1,8.83-13.25,1,1,0,0,0,1.85-.76,11.63,11.63,0,0,0-7.37-6.62c4.63-9.8,19.62-9.8,24.26,0a11.63,11.63,0,0,0-7.37,6.62,1,1,0,0,0,.54,1.3,1,1,0,0,0,1.31-.54,9.59,9.59,0,0,1,7.11-5.72c13.65-1.9,15.49,18.36,1.72,19a1,1,0,0,0,0,2c10,.21,15.37-12.59,8.35-19.56A10.64,10.64,0,0,0,59.81,20.56Zm-6.66,4.18a11.38,11.38,0,0,0-8-2.06,15.63,15.63,0,0,0-4-5.26A8.64,8.64,0,0,1,46.82,8.6,10.75,10.75,0,0,0,57.21,21.33,8.63,8.63,0,0,1,53.15,24.74Z"/></g></svg>