<svg xmlns="http://www.w3.org/2000/svg" viewBox="0 0 64 64"><defs><style>.cls-1{fill:#009ede;}.cls-2{fill:#0083ca;}.cls-3{fill:#fadf00;}.cls-4{fill:#ffc332;opacity:0.91;}.cls-5{fill:#fff;}</style></defs><g id="_14.sun" data-name="14.sun"><path class="cls-1" d="M42.55,26c-5-11.16-21.61-11.16-26.57,0C.87,24.93-.35,47.15,14.81,47.73H43.72C58.81,47.17,57.73,25,42.55,26Z"/><path class="cls-2" d="M52.8,30.86a10.59,10.59,0,0,0-2.25,0c-.2-.42-.41-.83-.64-1.22l-5.34-3.08H42l-1-1-.74-1.49-2.88-1.66A14.57,14.57,0,0,0,24,30.87c-8.9-1.28-15.4,9.54-10.26,16.8a9.82,9.82,0,0,0,1.09.06H43.72C52.17,48,57.64,37.71,52.8,30.86Z"/><path class="cls-3" d="M42.55,26a10.74,10.74,0,0,1,9.36,3.66C57.75,16.3,39.49,6,31,17.69A14.58,14.58,0,0,1,42.55,26Z"/><path class="cls-4" d="M42.55,26a10.78,10.78,0,0,1,9.4,3.7A12.15,12.15,0,0,0,36,19.23,14.54,14.54,0,0,1,42.55,26Z"/><path d="M24,35.57a1,1,0,0,0-1,1v16a1,1,0,0,0,2,0v-16A1,1,0,0,0,24,35.57Z"/><path d="M34,35.57a1,1,0,0,0-1,1v16a1,1,0,0,0,2,0v-16A1,1,0,0,0,34,35.57Z"/><path d="M18.29,41.87a1,1,0,0,0,.15,1.54C20.66,44.37,20.32,40.51,18.29,41.87Z"/><path d="M18.29,44.87a1,1,0,0,0,.15,1.54C20.66,47.37,20.32,43.51,18.29,44.87Z"/><path d="M19.56,47.74a1.07,1.07,0,0,0-1.12,0,1,1,0,1,0,1.12,0Z"/><path d="M18.29,50.87a1,1,0,0,0,.15,1.54C20.66,53.37,20.32,49.51,18.29,50.87Z"/><path d="M18.29,53.87a1,1,0,0,0,.15,1.54C20.66,56.36,20.32,52.52,18.29,53.87Z"/><path d="M19.56,56.74a1.07,1.07,0,0,0-1.12,0,1,1,0,1,0,1.12,0Z"/><path d="M28.81,41.6a1.18,1.18,0,0,0-.37.14,1,1,0,0,0,0,1.67C30.08,44.33,30.68,41.37,28.81,41.6Z"/><path d="M29.71,44.87a1,1,0,1,0-1.27,1.54A1,1,0,0,0,29.71,44.87Z"/><path d="M28.81,47.6a1.18,1.18,0,0,0-.37.14,1,1,0,0,0,0,1.67C30.08,50.33,30.68,47.37,28.81,47.6Z"/><path d="M28.81,50.6a1,1,0,0,0-.37,1.81C30.08,53.33,30.68,50.37,28.81,50.6Z"/><path d="M28.81,53.6a1,1,0,0,0-.37,1.81C30.1,56.31,30.69,53.39,28.81,53.6Z"/><path d="M28.81,56.6a1,1,0,0,0-.37,1.81C30.1,59.31,30.69,56.39,28.81,56.6Z"/><path d="M39.71,41.87a1,1,0,0,0-1.42,1.41C39.19,44.22,40.63,42.78,39.71,41.87Z"/><path d="M38.29,44.87c-.92.9.51,2.35,1.42,1.41S39.19,44,38.29,44.87Z"/><path d="M38.29,47.87c-.92.91.51,2.35,1.42,1.41S39.19,47,38.29,47.87Z"/><path d="M38.29,50.87a1,1,0,0,0,.15,1.54C40.65,53.36,40.35,49.53,38.29,50.87Z"/><path d="M38.29,53.87a1,1,0,0,0,.15,1.54C40.66,56.36,40.32,52.52,38.29,53.87Z"/><path d="M38.8,56.6a1,1,0,0,0,.2,2A1,1,0,1,0,38.8,56.6Z"/><path class="cls-5" d="M32.3,21c-1.6-.73-9.19-.59-8.45,2.09a1,1,0,0,0,.89.55,10.31,10.31,0,0,1,7-.72A1,1,0,0,0,32.3,21Z"/><path class="cls-5" d="M21.4,23.82c-.91.62-1.14,2.11.23,2.22.56,0,.8-.42,1.19-.81C23.75,24.33,22.31,22.89,21.4,23.82Z"/><path class="cls-5" d="M18.44,30.92c.51-1.38-1.38-1.67-2.33-1.88A7.82,7.82,0,0,0,8.64,31.7,1,1,0,0,0,10.16,33a5.94,5.94,0,0,1,5.6-2C16.65,31.1,17.87,32.09,18.44,30.92Z"/><path class="cls-5" d="M8.12,34.38c-1.57-.44-2,3.55-.37,3.45,1.25,0,.93-1.43,1.14-2.26A1,1,0,0,0,8.12,34.38Z"/><path d="M53.19,24.52c.09-11.85-15.69-16.69-22.25-6.85A14.64,14.64,0,0,0,16,26C.85,24.93-.36,47.15,14.8,47.73a1,1,0,0,0,0-2,8.9,8.9,0,0,1-8.89-8.9c0-9.6,13.42-12.28,17.1-3.42a1,1,0,1,0,1.84-.76A10.92,10.92,0,0,0,18,26.43c4.33-9,18.19-9,22.52,0a10.94,10.94,0,0,0-6.86,6.22A1,1,0,0,0,34.2,34a1,1,0,0,0,1.31-.54,8.89,8.89,0,0,1,6.61-5.32c12.69-1.76,14.4,17.08,1.6,17.64a1,1,0,0,0,0,2c9.14.19,14.32-11.26,8.26-18A12,12,0,0,0,53.19,24.52Zm-2.73,3.77A10.74,10.74,0,0,0,42.54,26a14.56,14.56,0,0,0-9.44-7.94C40.39,9.17,54.7,17.58,50.46,28.29Z"/><path class="cls-5" d="M46,17.22c-1.06-.9-5.21-3.12-5.69-.89a1,1,0,0,0,.94,1.05,6.1,6.1,0,0,1,3.42,1.32C45.59,19.68,47.05,18.07,46,17.22Z"/><path class="cls-5" d="M38.06,16a7.61,7.61,0,0,0-1.12.62,1,1,0,0,0,.55,1.83c.82-.22,2.36-.83,1.89-1.95A1,1,0,0,0,38.06,16Z"/><path d="M41,11.37a1,1,0,0,0,1-1V6.42a1,1,0,0,0-2,0v3.95A1,1,0,0,0,41,11.37Z"/><path d="M51.29,15.23a1,1,0,0,0,.7-.29l2.8-2.8a1,1,0,0,0,0-1.41,1,1,0,0,0-1.42,0l-2.79,2.79A1,1,0,0,0,51.29,15.23Z"/><path d="M59.09,23.52h-4a1,1,0,0,0,0,2h4A1,1,0,0,0,59.09,23.52Z"/><path d="M30,14.94c.9.93,2.35-.51,1.42-1.42l-2.8-2.79c-.9-.93-2.34.51-1.41,1.41Z"/></g></svg>